<svg version="1.1" xmlns="http://www.w3.org/2000/svg" xmlns:xlink="http://www.w3.org/1999/xlink" viewBox="0 0 172 172"><g fill="none" fill-rule="nonzero" stroke="none" stroke-width="1" stroke-linecap="butt" stroke-linejoin="miter" stroke-miterlimit="10" stroke-dasharray="" stroke-dashoffset="0" font-family="none" font-weight="none" font-size="none" text-anchor="none" style="mix-blend-mode: normal"><path d="M0,172v-172h172v172z" fill="none"></path><g><path d="M90.65833,164.83333c0,0 -12.18333,-3.58333 -26.15833,-3.58333c-13.975,0 -26.15833,3.58333 -26.15833,3.58333c-1.43333,0 -2.86667,-1.79167 -2.86667,-3.58333v-53.75c0,-1.79167 1.075,-3.58333 2.86667,-3.58333h51.95833c1.43333,0 2.86667,1.79167 2.86667,3.58333v53.75c0,1.79167 -1.075,3.58333 -2.50833,3.58333zM93.16667,68.08333h-57.33333v21.5h57.33333z" fill="#37474f"></path><path d="M164.83333,78.83333v53.75c0,10.03333 -8.24167,17.91667 -17.91667,17.91667h-121.83333c-10.03333,0 -17.91667,-8.24167 -17.91667,-17.91667v-17.91667c0,-10.03333 8.24167,-17.91667 17.91667,-17.91667h7.16667c6.45,0 7.16667,-7.16667 7.16667,-7.16667h50.16667c0,7.525 7.16667,7.16667 7.16667,7.16667h3.58333c7.88333,0 14.33333,-6.45 14.33333,-14.33333v-3.58333c0,-7.88333 6.45,-14.33333 14.33333,-14.33333h21.5c7.88333,0 14.33333,6.45 14.33333,14.33333zM93.16667,7.16667h-57.33333v14.33333h57.33333z" fill="#455a64"></path><path d="M150.5,84.20833c0,5.01667 -4.65833,8.95833 -10.75,8.95833c-6.09167,0 -10.75,-3.94167 -10.75,-8.95833c0,-5.01667 4.65833,-8.95833 10.75,-8.95833c6.09167,0 10.75,3.94167 10.75,8.95833zM121.83333,136.16667h28.30833c2.50833,-4.3 3.94167,-8.95833 3.94167,-14.33333c0,-5.375 -1.43333,-10.03333 -3.94167,-14.33333h-28.30833z" fill="#263238"></path><path d="M143.33333,121.83333c0,10.03333 -7.88333,17.91667 -17.91667,17.91667c-10.03333,0 -17.91667,-7.88333 -17.91667,-17.91667c0,-10.03333 7.88333,-17.91667 17.91667,-17.91667c10.03333,0 17.91667,7.88333 17.91667,17.91667zM83.85,86c-0.71667,-2.15 -2.86667,-3.58333 -5.01667,-3.58333h-14.33333h-13.975c-2.15,0 -4.3,1.43333 -5.01667,3.58333c-9.675,26.15833 -9.675,53.75 -9.675,53.75c0,1.79167 1.79167,3.58333 3.58333,3.58333h25.08333h25.08333c1.79167,0 3.58333,-1.79167 3.58333,-3.58333c0,0 0,-27.59167 -9.31667,-53.75z" fill="#78909c"></path><path d="M50.16667,114.66667h28.66667v21.5h-28.66667z" fill="#9fa8da"></path><path d="M57.33333,136.16667h-7.16667v-21.5h7.16667zM78.83333,114.66667h-7.16667v21.5h7.16667z" fill="#c5cae9"></path><path d="M96.75,50.16667v-14.33333h3.58333v-17.91667c0,-1.79167 -1.79167,-3.58333 -3.58333,-3.58333h-64.5c-1.79167,0 -3.58333,1.79167 -3.58333,3.58333v17.91667h3.58333v14.33333h-3.58333v14.33333c0,1.79167 5.375,7.16667 7.16667,7.16667h57.33333c1.79167,0 7.16667,-5.375 7.16667,-7.16667v-14.33333z" fill="#78909c"></path><path d="M32.25,35.83333h64.5v14.33333h-64.5z" fill="#546e7a"></path><path d="M143.33333,118.25h-7.88333c-1.43333,-4.3 -5.375,-7.16667 -10.03333,-7.16667c-6.09167,0 -10.75,4.65833 -10.75,10.75c0,6.09167 4.65833,10.75 10.75,10.75c4.65833,0 8.6,-2.86667 10.03333,-7.16667h7.88333z" fill="#b0bec5"></path></g></g></svg>